<mxfile host="app.diagrams.net" modified="2022-02-16T17:44:28.932Z" agent="5.0 (Windows NT 10.0; Win64; x64) AppleWebKit/537.36 (KHTML, like Gecko) Chrome/98.0.4758.80 Safari/537.36 Edg/98.0.1108.50" etag="ktlYo1DPckW-dItYRWKh" version="16.5.6" type="github">
  <diagram id="U0zCq_4r7ZOTAZ8oqjMB" name="Page-1">
    <mxGraphModel dx="654" dy="952" grid="1" gridSize="10" guides="1" tooltips="1" connect="1" arrows="1" fold="1" page="1" pageScale="1" pageWidth="827" pageHeight="1169" math="0" shadow="0">
      <root>
        <mxCell id="0" />
        <mxCell id="1" parent="0" />
        <mxCell id="isL8PMrPQCQYt0wr8BTN-1" value="Работа игры" style="rounded=0;whiteSpace=wrap;html=1;fontSize=18;" parent="1" vertex="1">
          <mxGeometry x="280" y="440" width="120" height="60" as="geometry" />
        </mxCell>
        <mxCell id="isL8PMrPQCQYt0wr8BTN-4" value="" style="endArrow=classic;html=1;rounded=0;fontSize=18;" parent="1" edge="1">
          <mxGeometry width="50" height="50" relative="1" as="geometry">
            <mxPoint x="100" y="469.5" as="sourcePoint" />
            <mxPoint x="280" y="469.5" as="targetPoint" />
          </mxGeometry>
        </mxCell>
        <mxCell id="isL8PMrPQCQYt0wr8BTN-5" value="Запуск игры" style="edgeLabel;html=1;align=center;verticalAlign=middle;resizable=0;points=[];fontSize=18;" parent="isL8PMrPQCQYt0wr8BTN-4" vertex="1" connectable="0">
          <mxGeometry x="-0.2732" y="3" relative="1" as="geometry">
            <mxPoint x="15" y="-26" as="offset" />
          </mxGeometry>
        </mxCell>
        <mxCell id="isL8PMrPQCQYt0wr8BTN-8" value="" style="endArrow=classic;html=1;rounded=0;fontSize=18;" parent="1" edge="1">
          <mxGeometry width="50" height="50" relative="1" as="geometry">
            <mxPoint x="339.5" y="670" as="sourcePoint" />
            <mxPoint x="339.5" y="500" as="targetPoint" />
          </mxGeometry>
        </mxCell>
        <mxCell id="isL8PMrPQCQYt0wr8BTN-9" value="Код игры" style="text;html=1;align=center;verticalAlign=middle;resizable=0;points=[];autosize=1;strokeColor=none;fillColor=none;fontSize=18;" parent="1" vertex="1">
          <mxGeometry x="230" y="570" width="90" height="30" as="geometry" />
        </mxCell>
        <mxCell id="isL8PMrPQCQYt0wr8BTN-10" value="" style="endArrow=classic;html=1;rounded=0;fontSize=18;" parent="1" edge="1">
          <mxGeometry width="50" height="50" relative="1" as="geometry">
            <mxPoint x="400" y="470" as="sourcePoint" />
            <mxPoint x="610" y="470" as="targetPoint" />
          </mxGeometry>
        </mxCell>
        <mxCell id="isL8PMrPQCQYt0wr8BTN-11" value="Игровой процесс" style="edgeLabel;html=1;align=center;verticalAlign=middle;resizable=0;points=[];fontSize=18;" parent="isL8PMrPQCQYt0wr8BTN-10" vertex="1" connectable="0">
          <mxGeometry x="-0.177" y="3" relative="1" as="geometry">
            <mxPoint x="24" y="-17" as="offset" />
          </mxGeometry>
        </mxCell>
        <mxCell id="isL8PMrPQCQYt0wr8BTN-18" value="" style="endArrow=classic;html=1;rounded=0;fontSize=18;" parent="1" edge="1">
          <mxGeometry width="50" height="50" relative="1" as="geometry">
            <mxPoint x="339.5" y="280" as="sourcePoint" />
            <mxPoint x="339.5" y="440" as="targetPoint" />
          </mxGeometry>
        </mxCell>
        <mxCell id="isL8PMrPQCQYt0wr8BTN-19" value="Правила &lt;br&gt;использования&lt;br&gt;приложения" style="text;html=1;align=center;verticalAlign=middle;resizable=0;points=[];autosize=1;strokeColor=none;fillColor=none;fontSize=18;" parent="1" vertex="1">
          <mxGeometry x="190" y="320" width="140" height="70" as="geometry" />
        </mxCell>
      </root>
    </mxGraphModel>
  </diagram>
</mxfile>
